<?xml version="1.0" encoding="UTF-8" standalone="no"?>
<svg
   xmlns:dc="http://purl.org/dc/elements/1.1/"
   xmlns:cc="http://creativecommons.org/ns#"
   xmlns:rdf="http://www.w3.org/1999/02/22-rdf-syntax-ns#"
   xmlns:svg="http://www.w3.org/2000/svg"
   xmlns="http://www.w3.org/2000/svg"
   xmlns:sodipodi="http://sodipodi.sourceforge.net/DTD/sodipodi-0.dtd"
   xmlns:inkscape="http://www.inkscape.org/namespaces/inkscape"
   sodipodi:docname="chromelogo.svg"
   inkscape:version="1.0 (4035a4fb49, 2020-05-01)"
   id="svg8"
   version="1.1"
   viewBox="0 0 210 297"
   height="297mm"
   width="210mm">
  <defs
     id="defs2" />
  <sodipodi:namedview
     inkscape:window-maximized="1"
     inkscape:window-y="-8"
     inkscape:window-x="54"
     inkscape:window-height="1057"
     inkscape:window-width="1858"
     showgrid="false"
     inkscape:document-rotation="0"
     inkscape:current-layer="g1533"
     inkscape:document-units="mm"
     inkscape:cy="746.47911"
     inkscape:cx="113.73179"
     inkscape:zoom="0.98994949"
     inkscape:pageshadow="2"
     inkscape:pageopacity="0.0"
     borderopacity="1.0"
     bordercolor="#666666"
     pagecolor="#ffffff"
     id="base" />
  <metadata
     id="metadata5">
    <rdf:RDF>
      <cc:Work
         rdf:about="">
        <dc:format>image/svg+xml</dc:format>
        <dc:type
           rdf:resource="http://purl.org/dc/dcmitype/StillImage" />
        <dc:title></dc:title>
      </cc:Work>
    </rdf:RDF>
  </metadata>
  <g
     id="layer1"
     inkscape:groupmode="layer"
     inkscape:label="Layer 1">
    <g
       transform="translate(-23.68464,16.675118)"
       id="g1533">
      <path
         id="path1410"
         style="font-variation-settings:normal;opacity:1;vector-effect:none;fill:#ff3434;fill-opacity:1;stroke:none;stroke-width:1.37953;stroke-linecap:butt;stroke-linejoin:miter;stroke-miterlimit:4;stroke-dasharray:none;stroke-dashoffset:62.9291;stroke-opacity:1;stop-color:#000000;stop-opacity:1"
         d="M 422.14258,314.28516 A 222.14285,222.14285 0 0 0 229.95508,425.02344 C 258.2415,480.02083 313.19846,535.02069 420,537.14258 472.29783,450.57795 542.41614,427.94493 602.15625,428.32812 c 4.86262,0.0312 9.64557,0.23082 14.35547,0.54493 A 222.14285,222.14285 0 0 0 422.14258,314.28516 Z M 228.09766,428.29297 a 222.14285,222.14285 0 0 0 -0.60743,1.0957 222.14285,222.14285 0 0 1 0.60743,-1.0957 z m -1.80274,3.29883 a 222.14285,222.14285 0 0 0 -0.58789,1.10742 222.14285,222.14285 0 0 1 0.58789,-1.10742 z m -1.16992,2.21679 a 222.14285,222.14285 0 0 0 -1.12109,2.17774 222.14285,222.14285 0 0 1 1.12109,-2.17774 z m -1.21094,2.35547 a 222.14285,222.14285 0 0 0 -1.60547,3.24219 222.14285,222.14285 0 0 1 1.60547,-3.24219 z m 397.70313,2.50196 a 222.14285,222.14285 0 0 1 0.38867,0.79882 222.14285,222.14285 0 0 0 -0.38867,-0.79882 z m 1.0039,2.07812 a 222.14285,222.14285 0 0 1 0.49805,1.05078 222.14285,222.14285 0 0 0 -0.49805,-1.05078 z m 0.49805,1.05078 a 222.14285,222.14285 0 0 1 0.48828,1.04492 222.14285,222.14285 0 0 0 -0.48828,-1.04492 z m -402.42383,1.00781 a 222.14285,222.14285 0 0 0 -0.52539,1.13672 222.14285,222.14285 0 0 1 0.52539,-1.13672 z m -0.52539,1.13672 a 222.14285,222.14285 0 0 0 -0.51953,1.14258 222.14285,222.14285 0 0 1 0.51953,-1.14258 z m -1.03125,2.28516 a 222.14285,222.14285 0 0 0 -0.36523,0.83008 222.14285,222.14285 0 0 1 0.36523,-0.83008 z m 409.92188,9.38281 a 222.14285,222.14285 0 0 1 0.42773,1.10352 222.14285,222.14285 0 0 0 -0.42773,-1.10352 z m -414.73633,2.3418 a 222.14285,222.14285 0 0 0 -0.82227,2.2168 222.14285,222.14285 0 0 1 0.82227,-2.2168 z m 416.1875,1.47461 a 222.14285,222.14285 0 0 1 0.32031,0.87305 222.14285,222.14285 0 0 0 -0.32031,-0.87305 z m 0.32031,0.87305 a 222.14285,222.14285 0 0 1 0.8457,2.35937 222.14285,222.14285 0 0 0 -0.8457,-2.35937 z m 0.8457,2.35937 a 222.14285,222.14285 0 0 1 0.35352,1.01172 222.14285,222.14285 0 0 0 -0.35352,-1.01172 z m -419.84375,2.23633 a 222.14285,222.14285 0 0 0 -0.33984,1.00781 222.14285,222.14285 0 0 1 0.33984,-1.00781 z m 420.76954,0.44726 a 222.14285,222.14285 0 0 1 0.27734,0.82618 222.14285,222.14285 0 0 0 -0.27734,-0.82618 z m 0.69531,2.09375 a 222.14285,222.14285 0 0 1 0.34765,1.07032 222.14285,222.14285 0 0 0 -0.34765,-1.07032 z m -423.39844,3.41993 a 222.14285,222.14285 0 0 0 -0.36133,1.18164 222.14285,222.14285 0 0 1 0.36133,-1.18164 z m 425.33399,2.81445 a 222.14285,222.14285 0 0 1 0.26953,0.92187 222.14285,222.14285 0 0 0 -0.26953,-0.92187 z m 0.26953,0.92187 a 222.14285,222.14285 0 0 1 0.3457,1.20508 222.14285,222.14285 0 0 0 -0.3457,-1.20508 z m -427.36914,2.27539 a 222.14285,222.14285 0 0 0 -0.25977,0.9375 222.14285,222.14285 0 0 1 0.25977,-0.9375 z m 428.46093,1.6211 a 222.14285,222.14285 0 0 1 0.2461,0.92187 222.14285,222.14285 0 0 0 -0.2461,-0.92187 z m 0.25391,0.95312 a 222.14285,222.14285 0 0 1 0.29687,1.12696 222.14285,222.14285 0 0 0 -0.29687,-1.12696 z m 0.33203,1.25977 a 222.14285,222.14285 0 0 1 0.29297,1.14648 222.14285,222.14285 0 0 0 -0.29297,-1.14648 z m 1.5293,6.27734 a 222.14285,222.14285 0 0 1 0.17383,0.76563 222.14285,222.14285 0 0 0 -0.17383,-0.76563 z m 0.51367,2.30469 a 222.14285,222.14285 0 0 1 0.20898,0.97656 222.14285,222.14285 0 0 0 -0.20898,-0.97656 z m -434.87891,3.42773 a 222.14285,222.14285 0 0 0 -0.24414,1.22852 222.14285,222.14285 0 0 1 0.24414,-1.22852 z m 435.91797,1.64844 a 222.14285,222.14285 0 0 1 0.16797,0.87891 222.14285,222.14285 0 0 0 -0.16797,-0.87891 z m -436.84961,3.27735 a 222.14285,222.14285 0 0 0 -0.42383,2.4707 222.14285,222.14285 0 0 1 0.42383,-2.4707 z m 437.54297,0.49023 a 222.14285,222.14285 0 0 1 0.12891,0.74219 222.14285,222.14285 0 0 0 -0.12891,-0.74219 z m 0.17578,1.01172 a 222.14285,222.14285 0 0 1 0.18555,1.10742 222.14285,222.14285 0 0 0 -0.18555,-1.10742 z m 0.18555,1.10742 a 222.14285,222.14285 0 0 1 0.16797,1.0332 222.14285,222.14285 0 0 0 -0.16797,-1.0332 z m -438.5293,1.09766 a 222.14285,222.14285 0 0 0 -0.14844,0.9375 222.14285,222.14285 0 0 1 0.14844,-0.9375 z m 439.10938,2.61718 a 222.14285,222.14285 0 0 1 0.14453,0.98633 222.14285,222.14285 0 0 0 -0.14453,-0.98633 z m -439.67188,1.09961 a 222.14285,222.14285 0 0 0 -0.17383,1.24219 222.14285,222.14285 0 0 1 0.17383,-1.24219 z m -0.33984,2.48438 a 222.14285,222.14285 0 0 0 -0.13281,1.03125 222.14285,222.14285 0 0 1 0.13281,-1.03125 z m 440.57812,0.51172 a 222.14285,222.14285 0 0 1 0.0918,0.71093 222.14285,222.14285 0 0 0 -0.0918,-0.71093 z m -440.89062,1.97461 a 222.14285,222.14285 0 0 0 -0.2832,2.49218 222.14285,222.14285 0 0 1 0.2832,-2.49218 z m 441.1914,0.45312 a 222.14285,222.14285 0 0 1 0.0957,0.83203 222.14285,222.14285 0 0 0 -0.0957,-0.83203 z m 0.11719,1.02539 a 222.14285,222.14285 0 0 1 0.12696,1.15235 222.14285,222.14285 0 0 0 -0.12696,-1.15235 z m 0.12696,1.15235 a 222.14285,222.14285 0 0 1 0.1289,1.2207 222.14285,222.14285 0 0 0 -0.1289,-1.2207 z m 0.13281,1.27343 a 222.14285,222.14285 0 0 1 0.12109,1.22071 222.14285,222.14285 0 0 0 -0.12109,-1.22071 z m 0.12109,1.22071 a 222.14285,222.14285 0 0 1 0.10352,1.09765 222.14285,222.14285 0 0 0 -0.10352,-1.09765 z m -442.3457,1.10742 a 222.14285,222.14285 0 0 0 -0.0762,0.86133 222.14285,222.14285 0 0 1 0.0762,-0.86133 z m 442.60156,1.75195 a 222.14285,222.14285 0 0 1 0.0723,0.88672 222.14285,222.14285 0 0 0 -0.0723,-0.88672 z m 0.0723,0.88672 a 222.14285,222.14285 0 0 1 0.0957,1.24805 222.14285,222.14285 0 0 0 -0.0957,-1.24805 z m 0.0957,1.24805 a 222.14285,222.14285 0 0 1 0.0801,1.1289 222.14285,222.14285 0 0 0 -0.0801,-1.1289 z m -443.25,2.36133 a 222.14285,222.14285 0 0 0 -0.0566,0.91601 222.14285,222.14285 0 0 1 0.0566,-0.91601 z m 443.43555,0.39843 a 222.14285,222.14285 0 0 1 0.0547,0.9336 222.14285,222.14285 0 0 0 -0.0547,-0.9336 z m 0.0625,1.04883 a 222.14285,222.14285 0 0 1 0.0625,1.19531 222.14285,222.14285 0 0 0 -0.0625,-1.19531 z m 0.0625,1.19531 a 222.14285,222.14285 0 0 1 0.0605,1.25196 222.14285,222.14285 0 0 0 -0.0605,-1.25196 z m 0.0605,1.25196 a 222.14285,222.14285 0 0 1 0.0527,1.25195 222.14285,222.14285 0 0 0 -0.0527,-1.25195 z m 0.0527,1.25195 a 222.14285,222.14285 0 0 1 0.043,1.12891 222.14285,222.14285 0 0 0 -0.043,-1.12891 z m -443.97852,1.11328 a 222.14285,222.14285 0 0 0 -0.0312,0.94336 222.14285,222.14285 0 0 1 0.0312,-0.94336 z m 444.07227,1.72461 a 222.14285,222.14285 0 0 1 0.0195,0.79688 222.14285,222.14285 0 0 0 -0.0195,-0.79688 z m -444.14453,0.7793 a 222.14285,222.14285 0 0 0 -0.0449,2.49609 222.14285,222.14285 0 0 1 0.0449,-2.49609 z m 444.19726,1.66601 a 222.14285,222.14285 0 0 1 0.0137,0.92774 222.14285,222.14285 0 0 0 -0.0137,-0.92774 z m 0.0137,1.03907 a 222.14285,222.14285 0 0 1 0.01,1.19531 222.14285,222.14285 0 0 0 -0.01,-1.19531 z m 0.01,1.19531 a 222.14285,222.14285 0 0 1 0.004,1.2539 222.14285,222.14285 0 0 0 -0.004,-1.2539 z M 200,536.42773 a 222.14285,222.14285 0 0 0 0.004,1.04297 222.14285,222.14285 0 0 1 -0.004,-1.04297 z m 444.27734,1.82618 a 222.14285,222.14285 0 0 1 -0.0137,1.20312 222.14285,222.14285 0 0 0 0.0137,-1.20312 z m -0.0137,1.20312 a 222.14285,222.14285 0 0 1 -0.0176,1.08203 222.14285,222.14285 0 0 0 0.0176,-1.08203 z m -444.20508,2.09375 a 222.14285,222.14285 0 0 0 0.0215,0.82813 222.14285,222.14285 0 0 1 -0.0215,-0.82813 z m 444.07227,3.16016 a 222.14285,222.14285 0 0 1 -0.041,1.00976 222.14285,222.14285 0 0 0 0.041,-1.00976 z m -443.89844,1.88086 a 222.14285,222.14285 0 0 0 0.0547,1.11132 222.14285,222.14285 0 0 1 -0.0547,-1.11132 z m 0.0547,1.11132 a 222.14285,222.14285 0 0 0 0.0644,1.21485 222.14285,222.14285 0 0 1 -0.0644,-1.21485 z m 443.73242,-0.41992 a 222.14285,222.14285 0 0 1 -0.0352,0.69922 222.14285,222.14285 0 0 0 0.0352,-0.69922 z m -443.66406,1.70899 a 222.14285,222.14285 0 0 0 0.0586,0.99414 222.14285,222.14285 0 0 1 -0.0586,-0.99414 z m 443.46484,1.78125 a 222.14285,222.14285 0 0 1 -0.0762,1.15429 222.14285,222.14285 0 0 0 0.0762,-1.15429 z m -443.30859,0.7207 a 222.14285,222.14285 0 0 0 0.0664,0.93164 222.14285,222.14285 0 0 1 -0.0664,-0.93164 z m 443.13672,1.73242 a 222.14285,222.14285 0 0 1 -0.0957,1.22461 222.14285,222.14285 0 0 0 0.0957,-1.22461 z m -442.94727,0.81641 a 222.14285,222.14285 0 0 0 0.0684,0.84961 222.14285,222.14285 0 0 1 -0.0684,-0.84961 z m 0.21289,2.52344 a 222.14285,222.14285 0 0 0 0.0957,1.01562 222.14285,222.14285 0 0 1 -0.0957,-1.01562 z m 442.39844,0.62304 a 222.14285,222.14285 0 0 1 -0.0996,1.03125 222.14285,222.14285 0 0 0 0.0996,-1.03125 z m -442.15039,1.9336 a 222.14285,222.14285 0 0 0 0.0918,0.86133 222.14285,222.14285 0 0 1 -0.0918,-0.86133 z m 441.7793,1.70117 a 222.14285,222.14285 0 0 1 -0.12891,1.13476 222.14285,222.14285 0 0 0 0.12891,-1.13476 z m -0.12891,1.13476 a 222.14285,222.14285 0 0 1 -0.11914,1.01758 222.14285,222.14285 0 0 0 0.11914,-1.01758 z m -441.09375,2.05469 a 222.14285,222.14285 0 0 0 0.10742,0.83985 222.14285,222.14285 0 0 1 -0.10742,-0.83985 z m 0.33789,2.57813 a 222.14285,222.14285 0 0 0 0.10156,0.73047 222.14285,222.14285 0 0 1 -0.10156,-0.73047 z m 440.07031,0.72851 a 222.14285,222.14285 0 0 1 -0.0996,0.69922 222.14285,222.14285 0 0 0 0.0996,-0.69922 z m -0.14453,1.00781 a 222.14285,222.14285 0 0 1 -0.16015,1.08594 222.14285,222.14285 0 0 0 0.16015,-1.08594 z m -0.16015,1.08594 a 222.14285,222.14285 0 0 1 -0.16797,1.09961 222.14285,222.14285 0 0 0 0.16797,-1.09961 z m -1.0293,6.24414 a 222.14285,222.14285 0 0 1 -0.21289,1.17188 222.14285,222.14285 0 0 0 0.21289,-1.17188 z m -0.21289,1.17188 a 222.14285,222.14285 0 0 1 -0.19336,1.03515 222.14285,222.14285 0 0 0 0.19336,-1.03515 z m -436.95313,-0.43164 a 222.14285,222.14285 0 0 0 0.21289,1.15039 222.14285,222.14285 0 0 1 -0.21289,-1.15039 z m 0.21289,1.15039 a 222.14285,222.14285 0 0 0 0.20313,1.06836 222.14285,222.14285 0 0 1 -0.20313,-1.06836 z m 435.71485,4.4707 a 222.14285,222.14285 0 0 1 -0.17774,0.8457 222.14285,222.14285 0 0 0 0.17774,-0.8457 z m -0.52735,2.45313 a 222.14285,222.14285 0 0 1 -0.1875,0.83789 222.14285,222.14285 0 0 0 0.1875,-0.83789 z m -0.53906,2.36718 a 222.14285,222.14285 0 0 1 -0.23047,0.98047 222.14285,222.14285 0 0 0 0.23047,-0.98047 z m -0.59766,2.50782 a 222.14285,222.14285 0 0 1 -0.2207,0.89062 222.14285,222.14285 0 0 0 0.2207,-0.89062 z m -431.38476,0.44531 a 222.14285,222.14285 0 0 0 0.30469,1.21484 222.14285,222.14285 0 0 1 -0.30469,-1.21484 z m 0.30469,1.21484 a 222.14285,222.14285 0 0 0 0.29492,1.1543 222.14285,222.14285 0 0 1 -0.29492,-1.1543 z m 0.32812,1.28125 a 222.14285,222.14285 0 0 0 0.22852,0.875 222.14285,222.14285 0 0 1 -0.22852,-0.875 z m 429.55274,1.72461 a 222.14285,222.14285 0 0 1 -0.24414,0.90039 222.14285,222.14285 0 0 0 0.24414,-0.90039 z m -0.65235,2.38086 a 222.14285,222.14285 0 0 1 -0.33203,1.16797 222.14285,222.14285 0 0 0 0.33203,-1.16797 z m -0.33203,1.16797 a 222.14285,222.14285 0 0 1 -0.29297,1.01758 222.14285,222.14285 0 0 0 0.29297,-1.01758 z m -0.73047,2.49805 a 222.14285,222.14285 0 0 1 -0.32422,1.07617 222.14285,222.14285 0 0 0 0.32422,-1.07617 z m -425.45703,0.69726 a 222.14285,222.14285 0 0 0 0.26953,0.88281 222.14285,222.14285 0 0 1 -0.26953,-0.88281 z m 0.73242,2.375 a 222.14285,222.14285 0 0 0 0.27149,0.85938 222.14285,222.14285 0 0 1 -0.27149,-0.85938 z m 423.25782,1.64063 a 222.14285,222.14285 0 0 1 -0.36915,1.1289 222.14285,222.14285 0 0 0 0.36915,-1.1289 z m -422.49024,0.74804 a 222.14285,222.14285 0 0 0 0.36914,1.11914 222.14285,222.14285 0 0 1 -0.36914,-1.11914 z m 0.36914,1.11914 a 222.14285,222.14285 0 0 0 0.32813,0.97657 222.14285,222.14285 0 0 1 -0.32813,-0.97657 z m 420.53125,2.86719 a 222.14285,222.14285 0 0 1 -0.41601,1.1836 222.14285,222.14285 0 0 0 0.41601,-1.1836 z m -0.41601,1.1836 a 222.14285,222.14285 0 0 1 -0.42188,1.17968 222.14285,222.14285 0 0 0 0.42188,-1.17968 z m -0.42188,1.17968 a 222.14285,222.14285 0 0 1 -0.35547,0.98047 222.14285,222.14285 0 0 0 0.35547,-0.98047 z m -417.61719,0.71875 a 222.14285,222.14285 0 0 0 0.33594,0.91407 222.14285,222.14285 0 0 1 -0.33594,-0.91407 z m 416.31055,2.80664 a 222.14285,222.14285 0 0 1 -0.44922,1.16993 222.14285,222.14285 0 0 0 0.44922,-1.16993 z m -0.44922,1.16993 a 222.14285,222.14285 0 0 1 -0.45312,1.16015 222.14285,222.14285 0 0 0 0.45312,-1.16015 z m -0.46094,1.17968 a 222.14285,222.14285 0 0 1 -0.38671,0.97852 222.14285,222.14285 0 0 0 0.38671,-0.97852 z m -413.18164,0.66797 a 222.14285,222.14285 0 0 0 0.39258,0.98438 222.14285,222.14285 0 0 1 -0.39258,-0.98438 z m 410.67969,5.42969 a 222.14285,222.14285 0 0 1 -0.28125,0.6543 222.14285,222.14285 0 0 0 0.28125,-0.6543 z m -408.28516,0.36133 a 222.14285,222.14285 0 0 0 0.42579,0.98437 222.14285,222.14285 0 0 1 -0.42579,-0.98437 z m 407.2793,1.94922 a 222.14285,222.14285 0 0 1 -0.3418,0.77148 222.14285,222.14285 0 0 0 0.3418,-0.77148 z m -0.39844,0.89648 a 222.14285,222.14285 0 0 1 -0.42578,0.94727 222.14285,222.14285 0 0 0 0.42578,-0.94727 z m -0.54882,1.22266 a 222.14285,222.14285 0 0 1 -0.42774,0.93164 222.14285,222.14285 0 0 0 0.42774,-0.93164 z m -403.75196,1.70117 a 222.14285,222.14285 0 0 0 0.50782,1.08594 222.14285,222.14285 0 0 1 -0.50782,-1.08594 z m 0.50782,1.08594 a 222.14285,222.14285 0 0 0 0.49414,1.04101 222.14285,222.14285 0 0 1 -0.49414,-1.04101 z m 402.11718,-0.34766 a 222.14285,222.14285 0 0 1 -0.30078,0.64063 222.14285,222.14285 0 0 0 0.30078,-0.64063 z m -401.55468,1.53516 a 222.14285,222.14285 0 0 0 0.51757,1.07422 222.14285,222.14285 0 0 1 -0.51757,-1.07422 z m 0.51757,1.07422 a 222.14285,222.14285 0 0 0 0.42188,0.86718 222.14285,222.14285 0 0 1 -0.42188,-0.86718 z m 1.12891,2.29687 a 222.14285,222.14285 0 0 0 0.52734,1.04883 222.14285,222.14285 0 0 1 -0.52734,-1.04883 z m 396.72852,1.59766 a 222.14285,222.14285 0 0 1 -0.43164,0.84765 222.14285,222.14285 0 0 0 0.43164,-0.84765 z m -395.57422,0.68359 a 222.14285,222.14285 0 0 0 0.52929,1.02149 222.14285,222.14285 0 0 1 -0.52929,-1.02149 z m 394.33984,1.70703 a 222.14285,222.14285 0 0 1 -0.40039,0.76172 222.14285,222.14285 0 0 0 0.40039,-0.76172 z m -391.44726,3.73633 a 222.14285,222.14285 0 0 0 0.50585,0.91797 222.14285,222.14285 0 0 1 -0.50585,-0.91797 z m 0.6875,1.24414 a 222.14285,222.14285 0 0 0 0.53124,0.94531 222.14285,222.14285 0 0 1 -0.53124,-0.94531 z m 385.92382,3.75781 a 222.14285,222.14285 0 0 1 -0.52734,0.89844 222.14285,222.14285 0 0 0 0.52734,-0.89844 z m -381.48047,3.85547 a 222.14285,222.14285 0 0 0 0.54688,0.88867 222.14285,222.14285 0 0 1 -0.54688,-0.88867 z m 378.85743,0.52539 a 222.14285,222.14285 0 0 1 -0.44922,0.72656 222.14285,222.14285 0 0 0 0.44922,-0.72656 z m -1.92188,3.07227 a 222.14285,222.14285 0 0 1 -0.58594,0.91211 222.14285,222.14285 0 0 0 0.58594,-0.91211 z m -0.58594,0.91211 a 222.14285,222.14285 0 0 1 -0.5957,0.92187 222.14285,222.14285 0 0 0 0.5957,-0.92187 z m -1.36914,2.09961 a 222.14285,222.14285 0 0 1 -0.69336,1.04492 222.14285,222.14285 0 0 0 0.69336,-1.04492 z m -0.69336,1.04492 a 222.14285,222.14285 0 0 1 -0.69922,1.03906 222.14285,222.14285 0 0 0 0.69922,-1.03906 z m -1.51367,2.23437 a 222.14285,222.14285 0 0 1 -0.57617,0.83594 222.14285,222.14285 0 0 0 0.57617,-0.83594 z m -1.45508,2.09571 a 222.14285,222.14285 0 0 1 -0.57031,0.80859 222.14285,222.14285 0 0 0 0.57031,-0.80859 z m -0.61132,0.86523 a 222.14285,222.14285 0 0 1 -0.65235,0.91406 222.14285,222.14285 0 0 0 0.65235,-0.91406 z m -361.04102,1.66406 a 222.14285,222.14285 0 0 0 0.48633,0.66993 222.14285,222.14285 0 0 1 -0.48633,-0.66993 z m 1.41797,1.93555 a 222.14285,222.14285 0 0 0 0.5039,0.67578 222.14285,222.14285 0 0 1 -0.5039,-0.67578 z m 355.73047,1.71484 a 222.14285,222.14285 0 0 1 -0.50391,0.66407 222.14285,222.14285 0 0 0 0.50391,-0.66407 z m -354.22657,0.29102 a 222.14285,222.14285 0 0 0 0.66016,0.86719 222.14285,222.14285 0 0 1 -0.66016,-0.86719 z m 5.4375,6.88477 a 222.14285,222.14285 0 0 0 0.77149,0.93164 222.14285,222.14285 0 0 1 -0.77149,-0.93164 z m 341.92579,1.45117 a 222.14285,222.14285 0 0 1 -0.73633,0.875 222.14285,222.14285 0 0 0 0.73633,-0.875 z m -340.32227,0.47461 a 222.14285,222.14285 0 0 0 0.69922,0.82617 222.14285,222.14285 0 0 1 -0.69922,-0.82617 z m 337.95703,2.30468 a 222.14285,222.14285 0 0 1 -0.8125,0.93555 222.14285,222.14285 0 0 0 0.8125,-0.93555 z m -335.46289,0.60938 a 222.14285,222.14285 0 0 0 0.69922,0.79687 222.14285,222.14285 0 0 1 -0.69922,-0.79687 z m 334.62695,0.35156 a 222.14285,222.14285 0 0 1 -0.70507,0.80078 222.14285,222.14285 0 0 0 0.70507,-0.80078 z m -333.79687,0.59375 a 222.14285,222.14285 0 0 0 0.59766,0.67578 222.14285,222.14285 0 0 1 -0.59766,-0.67578 z m 330.36719,3.23438 a 222.14285,222.14285 0 0 1 -0.69727,0.75781 222.14285,222.14285 0 0 0 0.69727,-0.75781 z m -2.63672,2.82422 a 222.14285,222.14285 0 0 1 -0.66797,0.70117 222.14285,222.14285 0 0 0 0.66797,-0.70117 z m -0.72656,0.76367 a 222.14285,222.14285 0 0 1 -0.78516,0.81445 222.14285,222.14285 0 0 0 0.78516,-0.81445 z m -5.43165,5.47461 a 222.14285,222.14285 0 0 1 -0.61718,0.59765 222.14285,222.14285 0 0 0 0.61718,-0.59765 z m -309.51953,0.33789 a 222.14285,222.14285 0 0 0 0.7461,0.71875 222.14285,222.14285 0 0 1 -0.7461,-0.71875 z m 1.90235,1.82422 a 222.14285,222.14285 0 0 0 0.81836,0.76953 222.14285,222.14285 0 0 1 -0.81836,-0.76953 z m 0.81836,0.76953 a 222.14285,222.14285 0 0 0 0.78125,0.72851 222.14285,222.14285 0 0 1 -0.78125,-0.72851 z m 3.81445,3.49023 a 222.14285,222.14285 0 0 0 0.82031,0.72852 222.14285,222.14285 0 0 1 -0.82031,-0.72852 z m 295.67578,0.37696 a 222.14285,222.14285 0 0 1 -0.78906,0.69726 222.14285,222.14285 0 0 0 0.78906,-0.69726 z M 275.9531,703.6875 a 222.14285,222.14285 0 0 0 0.84571,0.73633 222.14285,222.14285 0 0 1 -0.84571,-0.73633 z m 0.84571,0.73633 a 222.14285,222.14285 0 0 0 0.79687,0.68555 222.14285,222.14285 0 0 1 -0.79687,-0.68555 z m 3.97461,3.35937 a 222.14285,222.14285 0 0 0 0.76953,0.63086 222.14285,222.14285 0 0 1 -0.76953,-0.63086 z m 2.77344,2.24805 a 222.14285,222.14285 0 0 0 0.98046,0.7793 222.14285,222.14285 0 0 1 -0.98046,-0.7793 z m 0.98046,0.7793 a 222.14285,222.14285 0 0 0 0.73243,0.57617 222.14285,222.14285 0 0 1 -0.73243,-0.57617 z m 270.51368,3.62109 a 222.14285,222.14285 0 0 1 -0.58399,0.43555 222.14285,222.14285 0 0 0 0.58399,-0.43555 z m -265.53907,0.19141 a 222.14285,222.14285 0 0 0 0.78516,0.58203 222.14285,222.14285 0 0 1 -0.78516,-0.58203 z m 4.15039,3.01757 a 222.14285,222.14285 0 0 0 0.92774,0.65235 222.14285,222.14285 0 0 1 -0.92774,-0.65235 z m 0.92774,0.65235 a 222.14285,222.14285 0 0 0 0.88476,0.61719 222.14285,222.14285 0 0 1 -0.88476,-0.61719 z m 8.47656,5.66211 a 222.14285,222.14285 0 0 0 0.91797,0.57812 222.14285,222.14285 0 0 1 -0.91797,-0.57812 z m 0.91797,0.57812 a 222.14285,222.14285 0 0 0 1.06445,0.66407 222.14285,222.14285 0 0 1 -1.06445,-0.66407 z m 1.06445,0.66407 a 222.14285,222.14285 0 0 0 0.80664,0.49804 222.14285,222.14285 0 0 1 -0.80664,-0.49804 z m 2.27539,1.39453 a 222.14285,222.14285 0 0 0 0.93555,0.56054 222.14285,222.14285 0 0 1 -0.93555,-0.56054 z m 0.93555,0.56054 a 222.14285,222.14285 0 0 0 0.83398,0.4961 222.14285,222.14285 0 0 1 -0.83398,-0.4961 z m 2.20117,1.29688 a 222.14285,222.14285 0 0 0 0.89844,0.51953 222.14285,222.14285 0 0 1 -0.89844,-0.51953 z m 4.51172,2.55469 a 222.14285,222.14285 0 0 0 0.90625,0.49609 222.14285,222.14285 0 0 1 -0.90625,-0.49609 z m 3.29688,1.77929 a 222.14285,222.14285 0 0 0 0.83593,0.44141 222.14285,222.14285 0 0 1 -0.83593,-0.44141 z m 0.98046,0.51563 a 222.14285,222.14285 0 0 0 0.92383,0.48047 222.14285,222.14285 0 0 1 -0.92383,-0.48047 z m 1.16602,0.60547 a 222.14285,222.14285 0 0 0 0.94922,0.48437 222.14285,222.14285 0 0 1 -0.94922,-0.48437 z m 4.48437,2.24804 a 222.14285,222.14285 0 0 0 1.01563,0.49024 222.14285,222.14285 0 0 1 -1.01563,-0.49024 z m 1.01563,0.49024 a 222.14285,222.14285 0 0 0 0.98047,0.46875 222.14285,222.14285 0 0 1 -0.98047,-0.46875 z m 192.88672,-0.19922 a 222.14285,222.14285 0 0 1 -0.83008,0.40039 222.14285,222.14285 0 0 0 0.83008,-0.40039 z m -0.97656,0.46875 a 222.14285,222.14285 0 0 1 -0.90821,0.43164 222.14285,222.14285 0 0 0 0.90821,-0.43164 z m -187.24414,1.90625 a 222.14285,222.14285 0 0 0 0.94726,0.42578 222.14285,222.14285 0 0 1 -0.94726,-0.42578 z m 1.0625,0.47852 a 222.14285,222.14285 0 0 0 1.10351,0.48828 222.14285,222.14285 0 0 1 -1.10351,-0.48828 z m 1.10351,0.48828 a 222.14285,222.14285 0 0 0 1.00391,0.43945 222.14285,222.14285 0 0 1 -1.00391,-0.43945 z m 1.24805,0.54492 a 222.14285,222.14285 0 0 0 1.05273,0.45117 222.14285,222.14285 0 0 1 -1.05273,-0.45117 z m 1.05273,0.45117 a 222.14285,222.14285 0 0 0 1.02344,0.43164 222.14285,222.14285 0 0 1 -1.02344,-0.43164 z m 4.78711,1.97461 a 222.14285,222.14285 0 0 0 1.01172,0.40039 222.14285,222.14285 0 0 1 -1.01172,-0.40039 z m 1.01172,0.40039 a 222.14285,222.14285 0 0 0 0.95313,0.37305 222.14285,222.14285 0 0 1 -0.95313,-0.37305 z m 1.33984,0.52344 a 222.14285,222.14285 0 0 0 0.99805,0.38086 222.14285,222.14285 0 0 1 -0.99805,-0.38086 z m 0.99805,0.38086 a 222.14285,222.14285 0 0 0 0.87891,0.33203 222.14285,222.14285 0 0 1 -0.87891,-0.33203 z m 2.41406,0.90429 a 222.14285,222.14285 0 0 0 1.11133,0.40235 222.14285,222.14285 0 0 1 -1.11133,-0.40235 z m 1.11133,0.40235 a 222.14285,222.14285 0 0 0 0.90235,0.32422 222.14285,222.14285 0 0 1 -0.90235,-0.32422 z m 4.84375,1.68554 a 222.14285,222.14285 0 0 0 1.08008,0.35938 222.14285,222.14285 0 0 1 -1.08008,-0.35938 z m 1.08008,0.35938 a 222.14285,222.14285 0 0 0 1.19141,0.38867 222.14285,222.14285 0 0 1 -1.19141,-0.38867 z m 139.46094,-0.14063 a 222.14285,222.14285 0 0 1 -0.84961,0.28125 222.14285,222.14285 0 0 0 0.84961,-0.28125 z m -137.05274,0.91993 a 222.14285,222.14285 0 0 0 1.15235,0.36132 222.14285,222.14285 0 0 1 -1.15235,-0.36132 z m 2.50782,0.77929 a 222.14285,222.14285 0 0 0 1.0625,0.31836 222.14285,222.14285 0 0 1 -1.0625,-0.31836 z m 1.0625,0.31836 a 222.14285,222.14285 0 0 0 1.20117,0.35547 222.14285,222.14285 0 0 1 -1.20117,-0.35547 z m 125.05664,0.59375 a 222.14285,222.14285 0 0 1 -0.76563,0.22071 222.14285,222.14285 0 0 0 0.76563,-0.22071 z m -118.90235,1.14844 a 222.14285,222.14285 0 0 0 1.08594,0.28711 222.14285,222.14285 0 0 1 -1.08594,-0.28711 z m 1.08594,0.28711 a 222.14285,222.14285 0 0 0 1.10156,0.28516 222.14285,222.14285 0 0 1 -1.10156,-0.28516 z m 2.42773,0.62109 a 222.14285,222.14285 0 0 0 1.09961,0.27149 222.14285,222.14285 0 0 1 -1.09961,-0.27149 z m 1.32032,0.32617 a 222.14285,222.14285 0 0 0 1.11523,0.26758 222.14285,222.14285 0 0 1 -1.11523,-0.26758 z m 1.11523,0.26758 a 222.14285,222.14285 0 0 0 1.02539,0.24024 222.14285,222.14285 0 0 1 -1.02539,-0.24024 z m 3.66406,0.83985 a 222.14285,222.14285 0 0 0 0.90625,0.19726 222.14285,222.14285 0 0 1 -0.90625,-0.19726 z m 2.45118,0.52539 a 222.14285,222.14285 0 0 0 1.22851,0.25195 222.14285,222.14285 0 0 1 -1.22851,-0.25195 z m 1.22851,0.25195 a 222.14285,222.14285 0 0 0 0.91016,0.18164 222.14285,222.14285 0 0 1 -0.91016,-0.18164 z m 2.58203,0.50781 a 222.14285,222.14285 0 0 0 1.10938,0.20703 222.14285,222.14285 0 0 1 -1.10938,-0.20703 z m 1.10938,0.20703 a 222.14285,222.14285 0 0 0 1.21875,0.22266 222.14285,222.14285 0 0 1 -1.21875,-0.22266 z m 3.89062,0.68555 a 222.14285,222.14285 0 0 0 0.81446,0.13281 222.14285,222.14285 0 0 1 -0.81446,-0.13281 z m 4.91992,0.76172 a 222.14285,222.14285 0 0 0 0.72266,0.10352 222.14285,222.14285 0 0 1 -0.72266,-0.10352 z m 3.63672,0.49219 a 222.14285,222.14285 0 0 0 1.15821,0.14453 222.14285,222.14285 0 0 1 -1.15821,-0.14453 z m 3.8711,0.45703 a 222.14285,222.14285 0 0 0 1.04297,0.11133 222.14285,222.14285 0 0 1 -1.04297,-0.11133 z m 1.04297,0.11133 a 222.14285,222.14285 0 0 0 1.11132,0.11328 222.14285,222.14285 0 0 1 -1.11132,-0.11328 z m 1.38671,0.14062 a 222.14285,222.14285 0 0 0 0.75782,0.0723 222.14285,222.14285 0 0 1 -0.75782,-0.0723 z m 2.54102,0.23242 a 222.14285,222.14285 0 0 0 1.0293,0.0859 222.14285,222.14285 0 0 1 -1.0293,-0.0859 z m 37.54102,0.0586 a 222.14285,222.14285 0 0 1 -0.78125,0.0644 222.14285,222.14285 0 0 0 0.78125,-0.0644 z m -36.45899,0.0332 a 222.14285,222.14285 0 0 0 0.96484,0.0762 222.14285,222.14285 0 0 1 -0.96484,-0.0762 z m 1.41406,0.11133 a 222.14285,222.14285 0 0 0 1.06641,0.0762 222.14285,222.14285 0 0 1 -1.06641,-0.0762 z m 1.06641,0.0762 a 222.14285,222.14285 0 0 0 2.50195,0.16211 222.14285,222.14285 0 0 1 -2.50195,-0.16211 z m 2.50195,0.16211 a 222.14285,222.14285 0 0 0 1.16797,0.0664 222.14285,222.14285 0 0 1 -1.16797,-0.0664 z m 29.04492,-0.19336 a 222.14285,222.14285 0 0 1 -0.91406,0.0644 222.14285,222.14285 0 0 0 0.91406,-0.0644 z m -27.71289,0.26758 a 222.14285,222.14285 0 0 0 1.17188,0.0586 222.14285,222.14285 0 0 1 -1.17188,-0.0586 z m 1.17188,0.0586 a 222.14285,222.14285 0 0 0 1.12305,0.0508 222.14285,222.14285 0 0 1 -1.12305,-0.0508 z m 1.38086,0.0625 a 222.14285,222.14285 0 0 0 0.77539,0.0293 222.14285,222.14285 0 0 1 -0.77539,-0.0293 z m 3.66992,0.11914 a 222.14285,222.14285 0 0 0 0.80469,0.0195 222.14285,222.14285 0 0 1 -0.80469,-0.0195 z"
         transform="scale(0.26458333)" />
      <path
         id="path1414"
         style="font-variation-settings:normal;opacity:1;vector-effect:none;fill:#4cc255;fill-opacity:1;stroke:none;stroke-width:0.999999px;stroke-linecap:butt;stroke-linejoin:miter;stroke-miterlimit:4;stroke-dasharray:none;stroke-dashoffset:0;stroke-opacity:1;stop-color:#000000;stop-opacity:1"
         d="M 229.95508,425.02344 A 222.14285,222.14285 0 0 0 200,536.42773 222.14285,222.14285 0 0 0 417.45508,758.52148 C 451.22246,706.5001 471.80493,631.13507 420,537.14258 313.19846,535.02069 258.2415,480.02083 229.95508,425.02344 Z"
         transform="scale(0.26458333)" />
      <path
         id="path1414-1"
         style="font-variation-settings:normal;opacity:1;vector-effect:none;fill:#ffe242;fill-opacity:1;stroke:none;stroke-width:0.999999px;stroke-linecap:butt;stroke-linejoin:miter;stroke-miterlimit:4;stroke-dasharray:none;stroke-dashoffset:0;stroke-opacity:1;stop-color:#000000;stop-opacity:1"
         d="M 602.15625,428.32812 C 542.41614,427.94491 472.29783,450.57795 420,537.14258 c 51.80494,93.99249 31.22246,169.35752 -2.54492,221.3789 a 222.14285,222.14285 0 0 0 4.6875,0.0508 222.14285,222.14285 0 0 0 222.14258,-222.14454 222.14285,222.14285 0 0 0 -27.77344,-107.55468 c -4.7099,-0.31411 -9.49285,-0.51373 -14.35547,-0.54493 z"
         transform="scale(0.26458333)" />
    </g>
    <circle
       r="20.226955"
       cy="158.60521"
       cx="88.007248"
       id="path1521"
       style="font-variation-settings:normal;opacity:1;vector-effect:none;fill:#2a7fff;fill-opacity:1;stroke:#ffffff;stroke-width:2.5212;stroke-linecap:butt;stroke-linejoin:miter;stroke-miterlimit:4;stroke-dasharray:none;stroke-dashoffset:237.842;stroke-opacity:1;stop-color:#000000;stop-opacity:1" />
  </g>
</svg>
