<?xml version="1.0" encoding="UTF-8" standalone="no"?>
<svg
   xmlns:dc="http://purl.org/dc/elements/1.1/"
   xmlns:cc="http://creativecommons.org/ns#"
   xmlns:rdf="http://www.w3.org/1999/02/22-rdf-syntax-ns#"
   xmlns:svg="http://www.w3.org/2000/svg"
   xmlns="http://www.w3.org/2000/svg"
   xmlns:sodipodi="http://sodipodi.sourceforge.net/DTD/sodipodi-0.dtd"
   xmlns:inkscape="http://www.inkscape.org/namespaces/inkscape"
   sodipodi:docname="folderlogo.svg"
   inkscape:version="1.0 (4035a4fb49, 2020-05-01)"
   id="svg2414"
   version="1.1"
   viewBox="0 0 210 297"
   height="297mm"
   width="210mm">
  <defs
     id="defs2408" />
  <sodipodi:namedview
     inkscape:window-maximized="1"
     inkscape:window-y="-8"
     inkscape:window-x="54"
     inkscape:window-height="1057"
     inkscape:window-width="1858"
     showgrid="false"
     inkscape:document-rotation="0"
     inkscape:current-layer="layer1"
     inkscape:document-units="mm"
     inkscape:cy="518.89365"
     inkscape:cx="433.19833"
     inkscape:zoom="0.98994949"
     inkscape:pageshadow="2"
     inkscape:pageopacity="0.0"
     borderopacity="1.0"
     bordercolor="#666666"
     pagecolor="#ffffff"
     id="base" />
  <metadata
     id="metadata2411">
    <rdf:RDF>
      <cc:Work
         rdf:about="">
        <dc:format>image/svg+xml</dc:format>
        <dc:type
           rdf:resource="http://purl.org/dc/dcmitype/StillImage" />
        <dc:title></dc:title>
      </cc:Work>
    </rdf:RDF>
  </metadata>
  <g
     id="layer1"
     inkscape:groupmode="layer"
     inkscape:label="Layer 1">
    <path
       sodipodi:nodetypes="scssssssss"
       d="M 30.284262,101.74519 104.7968,101.5562 c 5.98695,-0.0195 18.19408,14.17411 18.19408,14.17411 0.65094,0.50711 0.82218,0.85806 0.7335,1.67844 l -1.5119,13.98702 c -0.0887,0.82038 -0.6643,1.48946 -1.48946,1.48946 H 30.284262 c -0.825159,0 -1.489456,-0.6643 -1.489456,-1.48946 v -28.16113 c 0,-0.82516 0.6643,-1.48736 1.489456,-1.48945 z"
       style="fill:#bfb663;fill-opacity:1;stroke-width:1.03026;stroke-dashoffset:237.842;stop-color:#000000"
       id="rect2977-4" />
  </g>
  <g
     inkscape:label="Layer 3"
     id="layer3"
     inkscape:groupmode="layer">
    <rect
       y="115.72771"
       x="36.883194"
       height="42.228584"
       width="144.05827"
       id="rect3016"
       style="fill:#fbfbfb;fill-opacity:1;stroke-width:2.292;stroke-dashoffset:237.842;stop-color:#000000" />
  </g>
  <g
     inkscape:label="Layer 2"
     id="layer2"
     inkscape:groupmode="layer">
    <path
       sodipodi:nodetypes="ssccssssssss"
       d="m 33.071118,123.90207 h 38.121061 c 11.864169,0 33.409031,-11.51334 52.484161,-11.52827 l 23.75796,-0.18899 h 38.12106 c 2.36908,0 4.27631,1.90723 4.27631,4.27631 v 80.85217 c 0,2.36908 -1.90723,4.27632 -4.27631,4.27632 H 33.071118 c -2.369077,0 -4.276312,-1.90724 -4.276312,-4.27632 v -69.13491 c 0,-2.36908 1.907235,-4.27631 4.276312,-4.27631 z"
       style="fill:#e6db74;fill-opacity:1;stroke-width:2.292;stroke-dashoffset:237.842;stop-color:#000000"
       id="rect2977" />
  </g>
</svg>
