<svg width="24" height="24" xmlns="http://www.w3.org/2000/svg">

 <g>
  <title>background</title>
  <rect fill="none" id="canvas_background" height="402" width="582" y="-1" x="-1"/>
 </g>
 <g>
  <title>Layer 1</title>
  <path id="svg_2" fill="#2c3e50" d="m3,1.999976c-1.1046,0 -2,0.9 -2,2l0,7l0,2l0,7c0,1.1 0.8954,2 2,2l9,0l9,0c1.105,0 2,-0.9 2,-2l0,-7l0,-2l0,-7c0,-1.1 -0.895,-2 -2,-2l-9,0l-9,0z"/>
  <path stroke="null" id="svg_3" fill="#34495e" d="m3,20.999976c-1.1046,0 -2,-1.038048 -2,-2.306774l0,-8.073709l0,-2.306774l0,-3.460161l22,0l0,3.460161l0,2.306774l0,8.073709c0,1.268726 -0.895,2.306774 -2,2.306774l-9,0l-9,0z"/>
  <path id="svg_4" fill="#ecf0f1" d="m4,4.499976l0,1.1l2,2.4l-2,2.3l0,1.1l3,-3.4l-3,-3.5z"/>
  <path id="svg_5" fill="#34495e" d="m3,2c-1.1046,0 -2,0.8954 -2,2l0,7l0,2l0,3l22,0l0,-3l0,-2l0,-7c0,-1.1046 -0.895,-2 -2,-2l-9,0l-9,0z"/>
  <path id="svg_6" fill="#ecf0f1" d="m3.967949,5.125l0,1.125l3,1.75l-3,1.75l0,1.125l5,-2.875l-5,-2.875zm5,4.875l0,1l5,0l0,-1l-5,0z"/>
 </g>
</svg>